# xmcd
#
# Track frame offsets:
#	150
#	29945
#	57635
#	84182
#	121090
#	143785
#
# Disc length: 2357 seconds
#
# Revision: 0
# Processed by: cddbd v1.4PL0 Copyright (c) Steve Scherf et al.
# Submitted via: EasyCDDAExtractor 4.5.2.1
#
DISCID=50093306
DTITLE=John Lee Hooker - The Rising Sun Collection
DYEAR=1900
DGENRE=blues
TTITLE0=Chicken And Gravy
TTITLE1=It Serves Me Right To Suffer
TTITLE2=Boom Boom
TTITLE3=Black Night Is Falling
TTITLE4=One Bourbon, One Scotch, One Beer
TTITLE5=One Room Country Shack
EXTD=
EXTT0=
EXTT1=
EXTT2=
EXTT3=
EXTT4=
EXTT5=
PLAYORDER=
